<svg width="34" height="37" viewBox="0 0 34 37" fill="none" xmlns="http://www.w3.org/2000/svg">
<path id="Vector" d="M25.6581 2.07652L20.6485 9.82491C20.4265 10.1683 20.0431 10.3731 19.6343 10.3669L2.30174 10.101C1.89276 10.0948 1.50945 10.2997 1.2875 10.643L0.322599 12.1354C-0.0964165 12.7835 0.205161 13.6527 0.935461 13.9019L13.4874 18.1867C14.2177 18.436 14.5193 19.3051 14.1002 19.9532L10.9241 24.8657C10.7384 25.1531 10.4377 25.3462 10.0993 25.3955L4.48426 26.2148C3.29293 26.3887 3.08843 28.0215 4.20007 28.4837L10.2397 30.9951C10.3713 31.0498 10.4921 31.128 10.596 31.2255L15.3651 35.7022C16.2427 36.5262 17.6477 35.6695 17.3174 34.5118L15.7599 29.0552C15.666 28.7264 15.7186 28.373 15.9044 28.0856L19.0805 23.1731C19.4995 22.525 20.4158 22.4432 20.9429 23.0069L30.0019 32.6943C30.529 33.258 31.4453 33.1762 31.8643 32.5281L32.8292 31.0357C33.0511 30.6924 33.0806 30.2587 32.9071 29.8884L25.5508 14.1921C25.3773 13.8219 25.4067 13.3882 25.6288 13.0448L30.6383 5.29642C31.5275 3.92115 31.1334 2.08546 29.7581 1.19634C28.3829 0.307218 26.5472 0.701256 25.6581 2.07652Z" fill="#83C9D2"/>
</svg>
