<svg width="31" height="26" viewBox="0 0 31 26" fill="none" xmlns="http://www.w3.org/2000/svg">
<path fill-rule="evenodd" clip-rule="evenodd" d="M0 24.7C0 24.3552 0.136086 24.0246 0.378321 23.7808C0.620555 23.537 0.949095 23.4 1.29167 23.4H29.7083C30.0509 23.4 30.3794 23.537 30.6217 23.7808C30.8639 24.0246 31 24.3552 31 24.7C31 25.0448 30.8639 25.3754 30.6217 25.6192C30.3794 25.863 30.0509 26 29.7083 26H1.29167C0.949095 26 0.620555 25.863 0.378321 25.6192C0.136086 25.3754 0 25.0448 0 24.7ZM0 16.9C0 16.5552 0.136086 16.2246 0.378321 15.9808C0.620555 15.737 0.949095 15.6 1.29167 15.6H29.7083C30.0509 15.6 30.3794 15.737 30.6217 15.9808C30.8639 16.2246 31 16.5552 31 16.9C31 17.2448 30.8639 17.5754 30.6217 17.8192C30.3794 18.063 30.0509 18.2 29.7083 18.2H1.29167C0.949095 18.2 0.620555 18.063 0.378321 17.8192C0.136086 17.5754 0 17.2448 0 16.9ZM0 9.1C0 8.75522 0.136086 8.42456 0.378321 8.18076C0.620555 7.93696 0.949095 7.8 1.29167 7.8H29.7083C30.0509 7.8 30.3794 7.93696 30.6217 8.18076C30.8639 8.42456 31 8.75522 31 9.1C31 9.44478 30.8639 9.77544 30.6217 10.0192C30.3794 10.263 30.0509 10.4 29.7083 10.4H1.29167C0.949095 10.4 0.620555 10.263 0.378321 10.0192C0.136086 9.77544 0 9.44478 0 9.1ZM0 1.3C0 0.955219 0.136086 0.624559 0.378321 0.380761C0.620555 0.136964 0.949095 0 1.29167 0H29.7083C30.0509 0 30.3794 0.136964 30.6217 0.380761C30.8639 0.624559 31 0.955219 31 1.3C31 1.64478 30.8639 1.97544 30.6217 2.21924C30.3794 2.46304 30.0509 2.6 29.7083 2.6H1.29167C0.949095 2.6 0.620555 2.46304 0.378321 2.21924C0.136086 1.97544 0 1.64478 0 1.3Z" fill="white"/>
</svg>
