<svg width="100" height="76" viewBox="0 0 100 76" fill="none" xmlns="http://www.w3.org/2000/svg">
<path d="M0.3125 10.2188C0.942614 7.45777 2.4916 4.99258 4.70576 3.22693C6.91992 1.46127 9.66803 0.499809 12.5 0.5H87.5C90.332 0.499809 93.0801 1.46127 95.2942 3.22693C97.5084 4.99258 99.0574 7.45777 99.6875 10.2188L50 40.5875L0.3125 10.2188ZM0 17.3563V61.7562L36.2687 39.5188L0 17.3563ZM42.2563 43.1875L1.19375 68.3563C2.20829 70.4955 3.80954 72.3027 5.81113 73.5674C7.81273 74.8321 10.1323 75.5023 12.5 75.5H87.5C89.8673 75.5005 92.186 74.8288 94.1865 73.5631C96.1869 72.2973 97.7868 70.4895 98.8 68.35L57.7375 43.1813L50 47.9125L42.2563 43.1875ZM63.7312 39.525L100 61.7562V17.3563L63.7312 39.5188V39.525Z" fill="white"/>
</svg>
